<?xml version="1.0" ?>
<!-- Uploaded to: SVG Repo, www.svgrepo.com, Generator: SVG Repo Mixer Tools -->
<svg fill="#000000" width="800px" height="800px" viewBox="0 0 100 100" version="1.1" xml:space="preserve" xmlns="http://www.w3.org/2000/svg" xmlns:xlink="http://www.w3.org/1999/xlink">
<g id="network"/>
<g id="connection"/>
<g id="page"/>
<g id="support"/>
<g id="configuration"/>
<g id="cloud_storage"/>
<g id="password"/>
<g id="search_engine"/>
<g id="history"/>
<g id="SEO"/>
<g id="optimization"/>
<g id="backlink">
<g>
<circle cx="41" cy="29" r="2"/>
<circle cx="35" cy="29" r="2"/>
<circle cx="29" cy="29" r="2"/>
<path d="M91,23H57c-2.8,0-5,2.2-5,5v11h-4V28c0-2.8-2.2-5-5-5H9c-2.8,0-5,2.2-5,5v44c0,2.8,2.2,5,5,5h34c2.8,0,5-2.2,5-5v-6h4v6    c0,2.8,2.2,5,5,5h34c2.8,0,5-2.2,5-5V28C96,25.2,93.8,23,91,23z M57,25h34c1.7,0,3,1.3,3,3v5H54v-5C54,26.3,55.3,25,57,25z M43,64    V46h9v3h-5c-0.6,0-1,0.4-1,1v10c0,0.6,0.4,1,1,1h20c0.6,0,1-0.4,1-1V50c0-0.6-0.4-1-1-1h-8v-3h12v18H43z M41,54h-7v-8h7V54z     M52,51v3h-4v-3H52z M59,51h7v8h-7V51z M57,59h-9v-3h5c0.6,0,1-0.4,1-1V45c0-0.6-0.4-1-1-1H33c-0.6,0-1,0.4-1,1v10    c0,0.6,0.4,1,1,1h8v3H29V41h28V59z M9,25h34c1.7,0,3,1.3,3,3v5H6v-5C6,26.3,7.3,25,9,25z M46,72c0,1.7-1.3,3-3,3H9    c-1.7,0-3-1.3-3-3V35h40v4H28c-0.6,0-1,0.4-1,1v20c0,0.6,0.4,1,1,1h13v4c0,0.6,0.4,1,1,1h4V72z M91,75H57c-1.7,0-3-1.3-3-3v-6h18    c0.6,0,1-0.4,1-1V45c0-0.6-0.4-1-1-1H59v-4c0-0.6-0.4-1-1-1h-4v-4h40v37C94,73.7,92.7,75,91,75z"/>
<circle cx="89" cy="29" r="2"/>
<circle cx="83" cy="29" r="2"/>
<circle cx="77" cy="29" r="2"/>
</g>
</g>
<g id="performance"/>
<g id="analytics"/>
<g id="security"/>
<g id="dark_web"/>
<g id="video_player"/>
<g id="upload_download"/>
<g id="incognito_tab"/>
<g id="bookmark"/>
</svg>