<?xml version="1.0" ?><!-- Uploaded to: SVG Repo, www.svgrepo.com, Generator: SVG Repo Mixer Tools -->
<svg width="800px" height="800px" viewBox="0 0 32 32" id="OBJECT" xmlns="http://www.w3.org/2000/svg"><defs><style>.cls-1{fill:#b2b2b2;}</style></defs><title/><rect class="cls-1" height="30" rx="3" ry="3" width="30" x="1" y="1"/><path d="M31,7V4a3,3,0,0,0-3-3H4A3,3,0,0,0,1,4V7Z"/><path class="cls-1" d="M26,5h-.5a1,1,0,0,1,0-2H26a1,1,0,0,1,0,2Z"/><path class="cls-1" d="M22,5h-.5a1,1,0,0,1,0-2H22a1,1,0,0,1,0,2Z"/><path d="M8,24H6a1,1,0,0,1,0-2H8a1,1,0,0,0,0-2,3,3,0,0,1,0-6h2a1,1,0,0,1,0,2H8a1,1,0,0,0,0,2,3,3,0,0,1,0,6Z"/><path d="M14,24a1,1,0,0,1-1-1V15a1,1,0,0,1,2,0v8A1,1,0,0,1,14,24Z"/><path d="M18,16H14.17a1,1,0,0,1,0-2H18a1,1,0,0,1,0,2Z"/><path d="M18,20H14.17a1,1,0,0,1,0-2H18a1,1,0,0,1,0,2Z"/><path d="M18,24H14.17a1,1,0,0,1,0-2H18a1,1,0,0,1,0,2Z"/><path d="M24,24a3,3,0,0,1-3-3V17a3,3,0,0,1,6,0v4A3,3,0,0,1,24,24Zm0-8a1,1,0,0,0-1,1v4a1,1,0,0,0,2,0V17A1,1,0,0,0,24,16Z"/></svg>