<?xml version="1.0" encoding="iso-8859-1"?>
<!-- Uploaded to: SVG Repo, www.svgrepo.com, Generator: SVG Repo Mixer Tools -->
<svg height="800px" width="800px" version="1.1" id="Layer_1" xmlns="http://www.w3.org/2000/svg" xmlns:xlink="http://www.w3.org/1999/xlink" 
	 viewBox="0 0 504 504" xml:space="preserve">
<g>
	<path style="fill:#73BADD;" d="M413.6,132c16.4,36,26,76.8,26.4,120h43.6c-0.4-43.6-12.4-84.8-33.6-119.6c-0.4,0-0.4-0.4-0.8-0.4
		H413.6z"/>
	<path style="fill:#73BADD;" d="M412.8,376h36c21.2-36,34-76,34.4-120h-43.6C439.2,300,429.6,340,412.8,376z"/>
</g>
<path style="fill:#2884A9;" d="M93.2,380H57.6c31.2,48,80,84.4,137.6,99.2C152.4,462,116.4,428,93.2,380z"/>
<g>
	<path style="fill:#73BADD;" d="M308.8,479.2c57.2-14.4,106-51.2,137.6-99.2h-35.6C387.6,428,351.6,462,308.8,479.2z"/>
	<path style="fill:#73BADD;" d="M411.6,128h35.6C416,80,366.8,42.4,308.8,27.6C352,44.8,388.4,80,411.6,128z"/>
</g>
<g>
	<path style="fill:#2884A9;" d="M195.2,27.6C137.2,42.4,88,80,56.8,128h35.6C115.6,80,152,44.8,195.2,27.6z"/>
	<path style="fill:#2884A9;" d="M91.2,376c-16.8-36-26.4-76-26.8-120H20.8c0.4,44,12.8,84,34.4,120H91.2z"/>
	<path style="fill:#2884A9;" d="M90.4,132H54c-21.2,36-33.2,76.8-33.6,120H64C64.4,208.8,74,168,90.4,132z"/>
</g>
<path style="fill:#73BADD;" d="M360.4,256c-0.4,44-6,84-15.6,120h63.6c16.8-36,26.8-76,27.2-120H360.4z"/>
<g>
	<path style="fill:#33A5D2;" d="M227.6,22.4C172.8,31.6,125.2,72,96.8,128h62.8C174.8,76,199.2,36.8,227.6,22.4z"/>
	<path style="fill:#33A5D2;" d="M160,380H97.2c28.4,56,75.6,94.8,130,104C199.2,470,175.2,432,160,380z"/>
</g>
<path style="fill:#73BADD;" d="M276.4,484c54.4-9.2,101.6-48,130-104H344C328.8,432,304.8,470,276.4,484z"/>
<path style="fill:#33A5D2;" d="M68.4,256c0.4,44,10.4,84,27.2,120h63.6c-9.6-36-15.2-76-15.6-120H68.4z"/>
<path style="fill:#73BADD;" d="M344.4,128h62.8c-28.4-56-76-96.4-130.8-105.6C304.8,36.8,329.2,76,344.4,128z"/>
<path style="fill:#33A5D2;" d="M143.6,252c0-43.2,5.6-84,15.2-120h-64C78,168,68.4,208.8,68.4,252H143.6z"/>
<g>
	<path style="fill:#73BADD;" d="M436,252c0-43.2-10-84-26.4-120h-64c9.6,36,15.2,76.8,15.2,120H436z"/>
	<path style="fill:#73BADD;" d="M252,256v120h89.2c9.6-36,15.2-76,15.6-120H252z"/>
	<path style="fill:#73BADD;" d="M340,380h-88v104.4c0,0,0,0.8,0.4,0.8C289.2,485.2,321.2,444,340,380z"/>
	<path style="fill:#73BADD;" d="M356.4,252c0-43.2-5.6-84-15.2-120H252v120H356.4z"/>
</g>
<g>
	<path style="fill:#33A5D2;" d="M248,484.4V380h-84C182,440,212,480.8,248,484.4z"/>
	<path style="fill:#33A5D2;" d="M147.6,256c0.4,44,6,84,15.6,120h85.2V256H147.6z"/>
</g>
<path style="fill:#73BADD;" d="M252,128h88.4c-18.4-64-50.8-106.8-88-106.8c-0.4,0-0.4,0.8-0.4,0.8V128z"/>
<g>
	<path style="fill:#33A5D2;" d="M147.6,252H248V132h-85.6C153.2,168,147.6,208.8,147.6,252z"/>
	<path style="fill:#33A5D2;" d="M248,22.4C212,25.6,181.6,68,163.6,128H248V22.4z"/>
</g>
<path d="M252,490.4C121.2,490.4,14.8,384,14.8,253.2S121.2,16,252,16s237.2,106.4,237.2,237.2S382.8,490.4,252,490.4z M252,24
	C125.6,24,22.8,126.8,22.8,253.2S125.6,482.4,252,482.4s229.2-102.8,229.2-229.2S378.4,24,252,24z"/>
<path d="M248,504c-2.4,0-4-1.6-4-4V4c0-2.4,1.6-4,4-4s4,1.6,4,4v496C252,502.4,250.4,504,248,504z"/>
<path d="M252,490.4C147.2,490.4,62,384,62,253.2S147.2,16,252,16s190,106.4,190,237.2S356.8,490.4,252,490.4z M252,24
	C151.6,24,70,126.8,70,253.2s81.6,229.2,182,229.2s182-102.8,182-229.2S352.4,24,252,24z"/>
<path d="M252,490.4c-60.8,0-110.4-106.4-110.4-237.2S191.2,16,252,16s110.4,106.4,110.4,237.2S312.8,490.4,252,490.4z M252,24
	c-56.4,0-102.4,102.8-102.4,229.2s46,229.2,102.4,229.2s102.4-102.8,102.4-229.2S308.4,24,252,24z"/>
<path d="M484,260H20c-2.4,0-4-1.6-4-4s1.6-4,4-4h464c2.4,0,4,1.6,4,4S486.4,260,484,260z"/>
<path d="M448,136H56c-2.4,0-4-1.6-4-4s1.6-4,4-4h392c2.4,0,4,1.6,4,4S450.4,136,448,136z"/>
<path d="M448,384H56c-2.4,0-4-1.6-4-4s1.6-4,4-4h392c2.4,0,4,1.6,4,4S450.4,384,448,384z"/>
</svg>